<svg id="Layer_1" data-name="Layer 1" xmlns="http://www.w3.org/2000/svg" viewBox="0 0 174.68 102.02"><defs><style>.cls-1,.cls-2,.cls-3,.cls-4,.cls-5,.cls-6,.cls-7,.cls-8,.cls-9{fill-rule:evenodd;}.cls-2{fill:#9800cb;}.cls-3{fill:#ffcb00;}.cls-4{fill:#490072;}.cls-5{fill:#a07700;}.cls-6{fill:#200037;}.cls-7{fill:#5f4500;}.cls-8{fill:#ffffcb;}.cls-9{fill:#f0f;}</style></defs><path class="cls-1" d="M-2070,1368.34a100.43,100.43,0,0,1,12.64,7.06c4.71,3,9.28,6.22,13.73,9.53,2,1.52,4.1,3.08,6.09,4.67a2.22,2.22,0,0,1,.4,3.18,2.86,2.86,0,0,1-3.49.7,19.46,19.46,0,0,0-2.27-.81,88.26,88.26,0,0,0-9.69-2.2,39.52,39.52,0,0,0-6.53-.44c-2.84,0-5.7.13-8.53.32-6.3.42-12.77,1.11-19,2a2.78,2.78,0,0,1-2.5-.86,2.58,2.58,0,0,1-1.81,1.4,2.8,2.8,0,0,1-2.68-.75l-6.75,2.83c-2.73,1.14-7.33,1.68-10.32,2-5,.59-10,1-15,1.3-8.61.57-17.3,1-25.92,1.2h-.18c-2.51-.08-5.07-.29-7.57-.52a129.29,129.29,0,0,1-16.07-2.45,62.07,62.07,0,0,1-10.86-3.34,54.35,54.35,0,0,0-15.47-4,37.7,37.7,0,0,0-6.55-.21,2.69,2.69,0,0,1-2.59-1.21,2.15,2.15,0,0,1,.2-2.61,28,28,0,0,1,6.4-5.83c4.4-2.57,8.88-5.06,13.32-7.57l13.53-7.65a2.68,2.68,0,0,1,1.15-.36l.3,0,0-.13,1.69-7.24a2.42,2.42,0,0,1,1.66-1.75,2.44,2.44,0,0,1,.13-.44,85.83,85.83,0,0,1,5.37-10.72,107.36,107.36,0,0,1,16.49-21.86,79.24,79.24,0,0,1,10.63-8.89,99.61,99.61,0,0,1,22.66-12c5-1.83,13.12-4.25,18.47-2.7,9.63,2.8,25.12,10,31.56,17a49.22,49.22,0,0,1,5.13,7c1.77,2.78,3.39,5.63,5,8.49,1.45,2.63,2.87,5.27,4.32,7.9,1.21,2.21,2.44,4.43,3.79,6.57a35.81,35.81,0,0,0,6.39,7.66,19.12,19.12,0,0,0,3,2.23,2.31,2.31,0,0,1,1.26,1.76,2.18,2.18,0,0,1-.76,2,15.12,15.12,0,0,1-4.39,2.55,16.11,16.11,0,0,1-11.08.1,55.22,55.22,0,0,1-7.09-3.2c-2.8-1.44-5.54-3-8.26-4.54-2.52-1.45-5-2.93-7.53-4.42.07.14.14.27.19.4a31.4,31.4,0,0,1,1,3.26c.32,1.17.63,2.35.92,3.53a2,2,0,0,1,.06.49c.82.21,1.62.43,2.41.67a2.45,2.45,0,0,1,1.8,2Z" transform="translate(2211.28 -1297.5)"/><path class="cls-2" d="M-2170,1355a106.52,106.52,0,0,1,21.35-31.79c14.58-14.73,40.08-25.49,48.93-22.92s24.21,9.59,30.33,16.25,13,21.74,18,29.58,10.28,10.75,10.28,10.75a13.12,13.12,0,0,1-12.62,2.1c-7.42-2.57-23-12.5-29.42-16s-11.84-4.91-14.57-8.07-4.43-12.39-4.43-12.39-.78,9.24,2.34,13.91,8.72,7.6,8.72,7.6a19.28,19.28,0,0,1-7.15,3.62,35.56,35.56,0,0,1-7.29,1.41,29.71,29.71,0,0,0,9.5.58,37.28,37.28,0,0,0,11.19-3s4.36,2.22,4.95,3.68,1.82,6.49,1.82,6.49S-2113.26,1345-2170,1355Z" transform="translate(2211.28 -1297.5)"/><path class="cls-3" d="M-2171.7,1356.85l-1.69,7.25s23.49-3.86,58.37-2.11,42.17,5,42.17,5l-1-7.33S-2117.62,1346.45-2171.7,1356.85Z" transform="translate(2211.28 -1297.5)"/><path class="cls-2" d="M-2176.06,1366.14s-24.21,13.68-26.81,15.2a29.18,29.18,0,0,0-5.73,5.26,53.89,53.89,0,0,1,23.43,4.44c12.62,5.38,33.45,6.08,33.45,6.08s42.69-1.17,50.23-4.33l7.55-3.15-3.12-10.64,5.47,11.57-.79-7.13,5.34,6.55s25.25-3.63,35-1.87,12.75,3.27,12.75,3.27-25.37-20.34-38-23S-2125.45,1361.62-2176.06,1366.14Z" transform="translate(2211.28 -1297.5)"/><path class="cls-4" d="M-2077.28,1368.36c-10.92-2.32-39-5.67-79.09-3.61,0,0,25.11-.57,32.88,2.69s4.64,10.42,4.64,10.42,3.23-2,3.33-4.8-.9-3.9-.9-3.9a7.12,7.12,0,0,1,3,8.7c-1.91,6.08-15.64,8.61-15.64,8.61a27.79,27.79,0,0,0,8.07,0,32.47,32.47,0,0,0,7.47-1.81s-9.08,8.34-27.75,9.34c-14.67.78-21.43.33-23.65.1,4.11.5,21.94,2.44,36.57,1.17,16.65-1.45,24.22-2.9,24.22-2.9l8.78-4-3.43-12.6,5.14,8.16-.3-4.35,7.67,8.24s20.28-2.81,27.15-2.44,9.89.81,9.89.81l-7-7.09c-7.32-4.84-15.48-9.55-21.11-10.75Zm-46.77-21c-3.4-1.45-5.22-2.61-6.81-5.75l-7.57-.91s7.72,5.89,14.38,6.66Zm6.51-10.42a16,16,0,0,1-1.71-9.79c.81-5.62,3.93-8,3.93-8s-12.66,2.85-2.22,17.76Zm35.68-22.16s-1.82,4.6.85,12.68a27.33,27.33,0,0,0,6.31,1.28s-4.69-5-5.7-8.16a48,48,0,0,1-1.46-5.8Zm-16.43,32.83a35.56,35.56,0,0,1-7.29,1.41,29.71,29.71,0,0,0,9.5.58,37.28,37.28,0,0,0,11.19-3s4.36,2.22,4.95,3.68,1.82,6.49,1.82,6.49-22-7.34-59.18-5.48c6.17-1.5,18.86-2.93,18.86-2.93a20.16,20.16,0,0,1-5.65-2.54c-3.69-2.18-4.09-4-4.09-4s.71.36,6.76,1.18a50.83,50.83,0,0,0,12.52-.18s-4.24-2-7.47-8.43,1.31-12,1.31-12a23.35,23.35,0,0,0,1.61,5.44,15.05,15.05,0,0,0,4.65,6.26s-2-2.27.2-14.23a22.91,22.91,0,0,1,1.45-5,27.86,27.86,0,0,0,.51,10.27,32.1,32.1,0,0,1,1.82-8.88,16.31,16.31,0,0,1,5.2-6.76s1.92,8.61,7.17,13.78,18.06,6.44,18.06,6.44a17.8,17.8,0,0,0,1.51,5.71,19,19,0,0,0,3.64,5.43l-.61-3.71a37,37,0,0,1,0-8.61s1.11,8,8.78,17.22a49.78,49.78,0,0,0,16.44,13.06,13,13,0,0,1-9.15.11c-7.42-2.57-23-12.5-29.42-16s-11.84-4.91-14.57-8.07-4.43-12.39-4.43-12.39-.78,9.24,2.34,13.91,8.72,7.6,8.72,7.6A19.28,19.28,0,0,1-2098.29,1347.61Z" transform="translate(2211.28 -1297.5)"/><path class="cls-5" d="M-2123.19,1358.38c-2.32.9-12.82,3.17-12.82,3.17,6.38,0,13.42.06,21,.44,34.88,1.76,42.17,5,42.17,5l-1-7.33a158.57,158.57,0,0,0-19.84-4.13h0c-11.27-1.64-28.79-1.58-28.79-1.58S-2120.87,1357.47-2123.19,1358.38Z" transform="translate(2211.28 -1297.5)"/><path class="cls-6" d="M-2061.28,1352.57c-7.17-4.89-8-9.69-8-9.69l-.1,3.62s-6.77-6.34-7.17-9.7a22.08,22.08,0,0,0-.5-3.44s-10.6,2.45-16.35-1.36-7.77-14.59-7.77-14.59a21.39,21.39,0,0,0-4,10.15c-.81,6.25,4.24,12.51,4.24,12.51a43.41,43.41,0,0,1-6.71-1.86,19,19,0,0,1-4-2.27s2.42,4.31,5.25,5.58,4.84,2.13,4.84,2.13a30.12,30.12,0,0,1-4.64,2.76c-1.51.54-6,1.36-6,1.36a15,15,0,0,0,5.73,4c18.22,1.58,28.39,5,28.39,5s-1.24-5-1.82-6.49-4.95-3.68-4.95-3.68a37.28,37.28,0,0,1-11.19,3,29.71,29.71,0,0,1-9.5-.58,35.56,35.56,0,0,0,7.29-1.41,19.28,19.28,0,0,0,7.15-3.62s-5.59-2.92-8.72-7.6-2.34-13.91-2.34-13.91,1.69,9.24,4.43,12.39,8.2,4.56,14.57,8.07,22,13.44,29.42,16a13.06,13.06,0,0,0,8.14.24,48.4,48.4,0,0,1-15.64-6.62Zm-19.08,15.19a271.26,271.26,0,0,0-35.49-3.36c2.9,1.17,6.91,3.11,7.84,5.3a36.94,36.94,0,0,1,2.12,8.43s2-3.53,2.32-5.62a13,13,0,0,0,0-3.8,65.71,65.71,0,0,1,9.39,6.52,29.86,29.86,0,0,1,6.46,7.71l-1.52-6.44,3.74,6.71s11-1.18,16-1.18,9.19.18,9.19.18a141.53,141.53,0,0,0-17.16-12.78C-2078.46,1368.81-2079.44,1368.26-2080.36,1367.76Z" transform="translate(2211.28 -1297.5)"/><path class="cls-7" d="M-2087.38,1356.59l-14.77-.3s-1.83,2.36-6.46,4.08c-1.75.64-3.65,1.22-5.35,1.68,10,.52,17.74,1.16,23.61,1.81,14,1.55,17.5,3.12,17.5,3.12l-1-7.33S-2078.81,1358.17-2087.38,1356.59Z" transform="translate(2211.28 -1297.5)"/><path class="cls-8" d="M-2150,1361.94s-13.6-.8-14.51-1.44-.15-3.62-.15-3.62,9-2,32.44-3.13c5.72-.29,10.24-.5,13.8-.65a228.64,228.64,0,0,0-53.27,3.75l-1.69,7.25A230,230,0,0,1-2150,1361.94Z" transform="translate(2211.28 -1297.5)"/><path class="cls-9" d="M-2156.37,1364.75q-9.4.48-19.69,1.39s-24.21,13.68-26.81,15.2a29.18,29.18,0,0,0-5.73,5.26,53.89,53.89,0,0,1,23.43,4.44c7.86,3.35,18.91,4.88,26.12,5.56,0,0-12.94-3.42-21.11-7.14s-10.5-7.88-10.5-7.88a81.28,81.28,0,0,0,8.68,3.71c6.56,2.54,8,2.54,8,2.54s-7.36-3.9-7.36-8.79a9.88,9.88,0,0,1,3.93-7.61s-1.92,3.62-1.11,6.89a12.59,12.59,0,0,0,3.7,5.7s-4.1-9.15,8.92-13.86a95.81,95.81,0,0,1,26.15-5.15c-8.45-.44-16.59-.26-16.59-.26Zm99.58-24.32s4.81,13.45,13.1,18a11.72,11.72,0,0,0,2.53-1.59s-5.33-2.92-10.28-10.75-11.84-22.91-18-29.58-21.48-13.67-30.33-16.25-34.35,8.19-48.93,22.92A106.52,106.52,0,0,0-2170,1355c7.75-1.37,15.1-2.32,22-3a97.28,97.28,0,0,1-10.61-.81c-2.93-.63,1.87-9.78,1.87-9.78a11.86,11.86,0,0,0,1.36,5,10.8,10.8,0,0,0,3.43,3s-2.12-5.07,0-12.32,8.58-13.69,8.58-13.69l-3.13,8.07a64.26,64.26,0,0,1,26.34-23.57c18.16-8.88,22.81-6.25,35.22.63s17.46,10.25,20,17,7.87,19.58,7.87,19.58Z" transform="translate(2211.28 -1297.5)"/></svg>