<svg height="100%" width="100%" id="svg" viewBox="0 0 1440 500" xmlns="http://www.w3.org/2000/svg"
  class="transition duration-300 ease-in-out delay-150">
  <defs>
    <linearGradient id="gradient">
      <stop offset="5%" stop-color="#00cbff66"></stop>
      <stop offset="95%" stop-color="#7937b866"></stop>
    </linearGradient>
  </defs>
  <path
    d="M 0,500 C 0,500 0,125 0,125 C 51.4287555228277,142.37297496318115 102.8575110456554,159.7459499263623 162,165 C 221.1424889543446,170.2540500736377 287.9987113402061,163.38917525773195 354,144 C 420.0012886597939,124.61082474226804 485.1476435935199,92.69734904270987 546,100 C 606.8523564064801,107.30265095729013 663.4107142857142,153.82142857142856 731,168 C 798.5892857142858,182.17857142857144 877.2094992636231,164.01693667157585 928,158 C 978.7905007363769,151.98306332842415 1001.7512886597938,158.11082474226805 1055,146 C 1108.2487113402062,133.88917525773195 1191.7853460972017,103.53976435935199 1261,97 C 1330.2146539027983,90.46023564064801 1385.107326951399,107.73011782032401 1440,125 C 1440,125 1440,500 1440,500 Z"
    stroke="none" stroke-width="0" fill="url(#gradient)" class="transition-all duration-300 ease-in-out delay-150">
  </path>
  <defs>
    <linearGradient id="gradient">
      <stop offset="5%" stop-color="#00cbff88"></stop>
      <stop offset="95%" stop-color="#7937b888"></stop>
    </linearGradient>
  </defs>
  <path
    d="M 0,500 C 0,500 0,250 0,250 C 67.39285714285714,229.52245949926362 134.78571428571428,209.04491899852724 197,205 C 259.2142857142857,200.95508100147276 316.25,213.34278350515464 377,214 C 437.75,214.65721649484536 502.21428571428567,203.58394698085417 559,208 C 615.7857142857143,212.41605301914583 664.8928571428572,232.3214285714286 714,235 C 763.1071428571428,237.6785714285714 812.2142857142858,223.13033873343147 879,227 C 945.7857142857142,230.86966126656853 1030.25,253.1572164948454 1093,269 C 1155.75,284.8427835051546 1196.7857142857144,294.24079528718704 1251,290 C 1305.2142857142856,285.75920471281296 1372.6071428571427,267.8796023564065 1440,250 C 1440,250 1440,500 1440,500 Z"
    stroke="none" stroke-width="0" fill="url(#gradient)" class="transition-all duration-300 ease-in-out delay-150">
  </path>
  <defs>
    <linearGradient id="gradient">
      <stop offset="5%" stop-color="#00cbffff"></stop>
      <stop offset="95%" stop-color="#7937b8ff"></stop>
    </linearGradient>
  </defs>
  <path
    d="M 0,500 C 0,500 0,375 0,375 C 64.33376288659795,364.61340206185565 128.6675257731959,354.2268041237113 191,347 C 253.3324742268041,339.7731958762887 313.66365979381436,335.7061855670103 376,353 C 438.33634020618564,370.2938144329897 502.67783505154637,408.9484536082474 564,418 C 625.3221649484536,427.0515463917526 683.6250000000001,406.50000000000006 729,391 C 774.3749999999999,375.49999999999994 806.8221649484535,365.0515463917526 866,368 C 925.1778350515465,370.9484536082474 1011.0863402061857,387.29381443298973 1084,397 C 1156.9136597938143,406.70618556701027 1216.8324742268044,409.77319587628864 1274,405 C 1331.1675257731956,400.22680412371136 1385.583762886598,387.6134020618557 1440,375 C 1440,375 1440,500 1440,500 Z"
    stroke="none" stroke-width="0" fill="url(#gradient)" class="transition-all duration-300 ease-in-out delay-150">
  </path>
</svg>
